# xmcd
#
# Track frame offsets:
#	183
#	17150
#	30650
#	44600
#	59275
#	71300
#	88600
#	101205
#	113560
#	123858
#
# Disc length: 1814 seconds
#
# Revision: 1
# Processed by: cddbd v1.5PL3 Copyright (c) Steve Scherf et al.
# Submitted via: audiograbber 1.83.01
#
DISCID=7e07140a
DTITLE=Mitty Collier - I Had A Talk With My Man
DYEAR=1989
DGENRE=Blues
TTITLE0=I Had A Talk With My Man
TTITLE1=Come Back Baby
TTITLE2=Drown In My Own Tears
TTITLE3=I Gotta Get Away From It All
TTITLE4=Together
TTITLE5=No Faith, No Love
TTITLE6=Hallelujah (I Love Him So)
TTITLE7=Would You Have Listened
TTITLE8=My Babe
TTITLE9=Let Them Talk
EXTD=
EXTT0=
EXTT1=
EXTT2=
EXTT3=
EXTT4=
EXTT5=
EXTT6=
EXTT7=
EXTT8=
EXTT9=
PLAYORDER=
